<svg width="52" height="52" viewBox="0 0 52 52" fill="none" xmlns="http://www.w3.org/2000/svg">
<g id="align-justify" clip-path="url(#clip0_91_13)">
<g id="Ellipse 2" filter="url(#filter0_d_91_13)">
<path d="M48 22.5C48 34.9264 37.9264 45 25.5 45C13.0736 45 3 34.9264 3 22.5C3 10.0736 13.0736 0 25.5 0C37.9264 0 48 10.0736 48 22.5Z" fill="white"/>
<path d="M48 22.5C48 34.9264 37.9264 45 25.5 45C13.0736 45 3 34.9264 3 22.5C3 10.0736 13.0736 0 25.5 0C37.9264 0 48 10.0736 48 22.5Z" fill="white"/>
</g>
<path id="Vector" d="M15.6 12.48H36.4" stroke="#CBCBCB" stroke-width="2" stroke-linecap="round" stroke-linejoin="round"/>
<path id="Vector_2" d="M15.6 21.84H36.4" stroke="#CBCBCB" stroke-width="2" stroke-linecap="round" stroke-linejoin="round"/>
<path id="Vector_3" d="M15.6 31.2H36.4" stroke="#CBCBCB" stroke-width="2" stroke-linecap="round" stroke-linejoin="round"/>
</g>
<defs>
<filter id="filter0_d_91_13" x="-1" y="0" width="53" height="53" filterUnits="userSpaceOnUse" color-interpolation-filters="sRGB">
<feFlood flood-opacity="0" result="BackgroundImageFix"/>
<feColorMatrix in="SourceAlpha" type="matrix" values="0 0 0 0 0 0 0 0 0 0 0 0 0 0 0 0 0 0 127 0" result="hardAlpha"/>
<feOffset dy="4"/>
<feGaussianBlur stdDeviation="2"/>
<feComposite in2="hardAlpha" operator="out"/>
<feColorMatrix type="matrix" values="0 0 0 0 0 0 0 0 0 0 0 0 0 0 0 0 0 0 0.25 0"/>
<feBlend mode="normal" in2="BackgroundImageFix" result="effect1_dropShadow_91_13"/>
<feBlend mode="normal" in="SourceGraphic" in2="effect1_dropShadow_91_13" result="shape"/>
</filter>
<clipPath id="clip0_91_13">
<rect width="52" height="52" fill="white"/>
</clipPath>
</defs>
</svg>
