<svg width="24" height="24" viewBox="0 0 24 24" fill="none" xmlns="http://www.w3.org/2000/svg">
<g id="user-cog-2">
<path id="Vector" d="M18 18C19.6569 18 21 16.6569 21 15C21 13.3431 19.6569 12 18 12C16.3431 12 15 13.3431 15 15C15 16.6569 16.3431 18 18 18Z" stroke="black" stroke-width="2" stroke-linecap="round" stroke-linejoin="round"/>
<path id="Vector_2" d="M8 13C10.2091 13 12 11.2091 12 9C12 6.79086 10.2091 5 8 5C5.79086 5 4 6.79086 4 9C4 11.2091 5.79086 13 8 13Z" stroke="black" stroke-width="2" stroke-linecap="round" stroke-linejoin="round"/>
<path id="Vector_3" d="M10.4999 13.4999C9.58232 13.0793 8.57343 12.897 7.56664 12.9699C6.55986 13.0427 5.58773 13.3684 4.74025 13.9168C3.89277 14.4652 3.19734 15.2185 2.71834 16.107C2.23933 16.9955 1.99224 17.9906 1.99993 18.9999" stroke="black" stroke-width="2" stroke-linecap="round" stroke-linejoin="round"/>
<path id="Vector_4" d="M21.7001 16.4L20.8 16.1" stroke="black" stroke-width="2" stroke-linecap="round" stroke-linejoin="round"/>
<path id="Vector_5" d="M15.2 13.9L14.3 13.6" stroke="black" stroke-width="2" stroke-linecap="round" stroke-linejoin="round"/>
<path id="Vector_6" d="M16.6001 18.7001L16.9001 17.8" stroke="black" stroke-width="2" stroke-linecap="round" stroke-linejoin="round"/>
<path id="Vector_7" d="M19.1001 12.2L19.4001 11.3" stroke="black" stroke-width="2" stroke-linecap="round" stroke-linejoin="round"/>
<path id="Vector_8" d="M19.6 18.7L19.2 17.7" stroke="black" stroke-width="2" stroke-linecap="round" stroke-linejoin="round"/>
<path id="Vector_9" d="M16.7999 12.3L16.3999 11.3" stroke="black" stroke-width="2" stroke-linecap="round" stroke-linejoin="round"/>
<path id="Vector_10" d="M14.3 16.6L15.3 16.2" stroke="black" stroke-width="2" stroke-linecap="round" stroke-linejoin="round"/>
<path id="Vector_11" d="M20.7 13.8L21.7 13.4" stroke="black" stroke-width="2" stroke-linecap="round" stroke-linejoin="round"/>
</g>
</svg>
