<svg width="50" height="50" viewBox="0 0 50 50" fill="none" xmlns="http://www.w3.org/2000/svg">
<g id="menu" clip-path="url(#clip0_24_8)">
<g id="Ellipse 3">
<path d="M50 25C50 38.8071 38.8071 50 25 50C11.1929 50 0 38.8071 0 25C0 11.1929 11.1929 0 25 0C38.8071 0 50 11.1929 50 25Z" fill="#EFEFEF"/>
<path d="M50 25C50 38.8071 38.8071 50 25 50C11.1929 50 0 38.8071 0 25C0 11.1929 11.1929 0 25 0C38.8071 0 50 11.1929 50 25Z" fill="#EFEFEF"/>
</g>
<path id="Vector" d="M29.7083 16.125C29.9736 15.8115 30.3018 15.5563 30.6719 15.3757C31.042 15.1951 31.4459 15.093 31.8579 15.076C32.27 15.059 32.681 15.1275 33.065 15.2769C33.4489 15.4264 33.7972 15.6537 34.0878 15.9443C34.3784 16.2348 34.6048 16.5823 34.7526 16.9646C34.9005 17.3469 34.9665 17.7555 34.9464 18.1645C34.9264 18.5735 34.8208 18.9739 34.6363 19.3401C34.4519 19.7064 34.1926 20.0304 33.875 20.2916L19.8125 34.3541L14.0833 35.9166L15.6458 30.1875L29.7083 16.125Z" stroke="black" stroke-width="2" stroke-linecap="round" stroke-linejoin="round"/>
</g>
<defs>
<clipPath id="clip0_24_8">
<rect width="50" height="50" fill="white"/>
</clipPath>
</defs>
</svg>
