<svg width="31" height="31" viewBox="0 0 31 31" fill="none" xmlns="http://www.w3.org/2000/svg">
<g id="help-circle">
<path id="Vector" d="M15.5 28.4167C22.6337 28.4167 28.4166 22.6337 28.4166 15.5C28.4166 8.36636 22.6337 2.58337 15.5 2.58337C8.3663 2.58337 2.58331 8.36636 2.58331 15.5C2.58331 22.6337 8.3663 28.4167 15.5 28.4167Z" stroke="#CBCBCB" stroke-width="2" stroke-linecap="round" stroke-linejoin="round"/>
<path id="Vector_2" d="M11.7413 11.625C12.0449 10.7617 12.6443 10.0338 13.4333 9.57013C14.2222 9.10646 15.1498 8.93697 16.0518 9.09167C16.9537 9.24638 17.7718 9.71531 18.3612 10.4154C18.9505 11.1155 19.2731 12.0016 19.2717 12.9167C19.2717 15.5 15.3967 16.7917 15.3967 16.7917" stroke="#CBCBCB" stroke-width="2" stroke-linecap="round" stroke-linejoin="round"/>
<path id="Vector_3" d="M15.5 21.9584H15.5129" stroke="#CBCBCB" stroke-width="2" stroke-linecap="round" stroke-linejoin="round"/>
</g>
</svg>
